<svg width="21" height="19" viewBox="0 0 21 19" fill="none" xmlns="http://www.w3.org/2000/svg">
<path d="M12.1406 0.5H20.0156C20.2675 0.5 20.5 0.71595 20.5 1.01786V7.80357C20.5 8.10548 20.2675 8.32143 20.0156 8.32143H12.1406C11.8887 8.32143 11.6562 8.10548 11.6562 7.80357V1.01786C11.6562 0.71595 11.8887 0.5 12.1406 0.5ZM0.984375 0.5H8.85938C9.11126 0.5 9.34375 0.71595 9.34375 1.01786V7.80357C9.34375 8.10548 9.11126 8.32143 8.85938 8.32143H0.984375C0.732487 8.32143 0.5 8.10548 0.5 7.80357V1.01786C0.5 0.71595 0.732487 0.5 0.984375 0.5ZM0.5 17.9821V11.1964C0.5 10.8945 0.732488 10.6786 0.984375 10.6786H8.85938C9.11126 10.6786 9.34375 10.8945 9.34375 11.1964V17.9821C9.34375 18.284 9.11126 18.5 8.85938 18.5H0.984375C0.732488 18.5 0.5 18.284 0.5 17.9821ZM20.0156 18.5H12.1406C11.8887 18.5 11.6562 18.284 11.6562 17.9821V11.1964C11.6562 10.8945 11.8887 10.6786 12.1406 10.6786H20.0156C20.2675 10.6786 20.5 10.8945 20.5 11.1964V17.9821C20.5 18.284 20.2675 18.5 20.0156 18.5Z" fill="#E8E3E3" stroke="white"/>
</svg>
