<svg width="16" height="11" viewBox="0 0 16 11" fill="none" xmlns="http://www.w3.org/2000/svg">
<path d="M0.695896 1.80319L0.697792 1.80131L1.80131 0.697792C2.06608 0.433019 2.49021 0.435752 2.74759 0.695896L2.74758 0.695901L2.74947 0.697792L7.45651 5.40482L7.81006 5.75838L8.16361 5.40482L12.8706 0.697792C13.1354 0.433019 13.5595 0.435752 13.8169 0.695901L13.8188 0.697792L14.9223 1.80131C15.1871 2.06608 15.1844 2.49021 14.9242 2.74758L14.9223 2.74947L8.2817 9.3901L8.28168 9.39008L8.27792 9.39392C8.02688 9.65042 7.60427 9.65595 7.33842 9.3901L0.697792 2.74947C0.433019 2.4847 0.435752 2.06057 0.695896 1.80319Z" fill="black" stroke="white"/>
</svg>
