<svg width="24" height="23" viewBox="0 0 24 23" fill="none" xmlns="http://www.w3.org/2000/svg">
<path d="M23.4375 19.1667C23.7469 19.1667 24 19.4901 24 19.8854V22.2812C24 22.6766 23.7469 23 23.4375 23H0.5625C0.253125 23 0 22.6766 0 22.2812V0.71875C0 0.323438 0.253125 0 0.5625 0H2.4375C2.74688 0 3 0.323438 3 0.71875V19.1667H23.4375ZM17.4703 5.72005L13.5 9.10417L9.50156 2.29401C9.2625 1.88672 8.775 1.91667 8.56875 2.35391L4.5 11.0208V17.25H22.5L18.2859 6.00156C18.1359 5.61224 17.7516 5.48047 17.4703 5.72005Z" fill="white"/>
</svg>
