<svg width="23" height="25" viewBox="0 0 23 25" fill="none" xmlns="http://www.w3.org/2000/svg">
<path d="M14.75 2H5C3.34315 2 2 3.34315 2 5V20C2 21.6569 3.34315 23 5 23H14.75" stroke="#FFFEFE" stroke-width="4"/>
<path d="M16.2937 6.20449L16.8718 5.46542C17.1166 5.15248 17.5123 5.15248 17.7545 5.46542L22.8164 11.934C23.0612 12.2469 23.0612 12.753 22.8164 13.0626L17.7545 19.5345C17.5097 19.8474 17.1139 19.8474 16.8718 19.5345L16.2937 18.7954C16.0464 18.4791 16.0516 17.9631 16.3041 17.6535L19.4418 13.8316H11.9583C11.612 13.8316 11.3333 13.4754 11.3333 13.0326V11.9673C11.3333 11.5245 11.612 11.1683 11.9583 11.1683H19.4418L16.3041 7.3464C16.049 7.03678 16.0438 6.52076 16.2937 6.20449Z" fill="white"/>
</svg>
