<svg width="21" height="17" viewBox="0 0 21 17" fill="none" xmlns="http://www.w3.org/2000/svg">
<path d="M0.65625 13.5769H3.28125C3.32328 13.5769 3.36322 13.5936 3.39238 13.6226C3.42148 13.6516 3.4375 13.6906 3.4375 13.7308V16.3462C3.4375 16.3864 3.42148 16.4253 3.39238 16.4543C3.36322 16.4833 3.32328 16.5 3.28125 16.5H0.65625C0.61422 16.5 0.574278 16.4833 0.545115 16.4543C0.516015 16.4253 0.5 16.3864 0.5 16.3462V13.7308C0.5 13.6906 0.516015 13.6516 0.545115 13.6226C0.574278 13.5936 0.61422 13.5769 0.65625 13.5769ZM0.65625 0.5H3.28125C3.32328 0.5 3.36322 0.516653 3.39238 0.545709C3.42149 0.574703 3.4375 0.613637 3.4375 0.653846V3.26923C3.4375 3.30944 3.42149 3.34837 3.39238 3.37737C3.36322 3.40642 3.32328 3.42308 3.28125 3.42308H0.65625C0.61422 3.42308 0.574278 3.40642 0.545116 3.37737C0.516014 3.34837 0.5 3.30944 0.5 3.26923V0.653846C0.5 0.613637 0.516015 0.574703 0.545115 0.545709C0.574278 0.516653 0.614219 0.5 0.65625 0.5ZM0.65625 7.03846H3.28125C3.32328 7.03846 3.36322 7.05511 3.39238 7.08417C3.42149 7.11316 3.4375 7.1521 3.4375 7.19231V9.80769C3.4375 9.8479 3.42149 9.88684 3.39238 9.91583L3.73309 10.2578L3.39238 9.91583C3.36322 9.94489 3.32328 9.96154 3.28125 9.96154H0.65625C0.614218 9.96154 0.574278 9.94489 0.545116 9.91583L0.192211 10.27L0.545115 9.91583C0.516015 9.88684 0.5 9.8479 0.5 9.80769V7.19231C0.5 7.1521 0.516015 7.11316 0.545115 7.08417C0.574278 7.05511 0.614219 7.03846 0.65625 7.03846ZM7.21875 14.2308H20.3438C20.3858 14.2308 20.4257 14.2474 20.4549 14.2765C20.484 14.3055 20.5 14.3444 20.5 14.3846V15.6923C20.5 15.7325 20.484 15.7715 20.4549 15.8004C20.4257 15.8295 20.3858 15.8462 20.3438 15.8462H7.21875C7.17672 15.8462 7.13678 15.8295 7.10762 15.8004L6.78407 16.1252L7.10761 15.8004C7.07851 15.7715 7.0625 15.7325 7.0625 15.6923V14.3846C7.0625 14.3444 7.07851 14.3055 7.10761 14.2765C7.13678 14.2474 7.17672 14.2308 7.21875 14.2308ZM7.21875 1.15385H20.3438C20.3858 1.15385 20.4257 1.1705 20.4549 1.19955C20.484 1.22855 20.5 1.26748 20.5 1.30769V2.61538C20.5 2.65559 20.484 2.69453 20.4549 2.72352C20.4257 2.75258 20.3858 2.76923 20.3438 2.76923H7.21875C7.17672 2.76923 7.13678 2.75258 7.10761 2.72352C7.07851 2.69453 7.0625 2.65559 7.0625 2.61538V1.30769C7.0625 1.26748 7.07851 1.22855 7.10761 1.19955C7.13678 1.1705 7.17672 1.15385 7.21875 1.15385ZM7.21875 7.69231H20.3438C20.3858 7.69231 20.4257 7.70896 20.4549 7.73801C20.484 7.76701 20.5 7.80595 20.5 7.84615V9.15385C20.5 9.19405 20.484 9.23299 20.4549 9.26198C20.4257 9.29104 20.3858 9.30769 20.3438 9.30769H7.21875C7.17672 9.30769 7.13678 9.29104 7.10761 9.26198C7.07852 9.23299 7.0625 9.19406 7.0625 9.15385V7.84615C7.0625 7.80594 7.07851 7.76701 7.10761 7.73802C7.13678 7.70896 7.17672 7.69231 7.21875 7.69231Z" fill="#CC0001" stroke="white"/>
</svg>
