<svg width="25" height="25" viewBox="0 0 25 25" fill="none" xmlns="http://www.w3.org/2000/svg">
<path d="M24.3304 7.8125H0.669643C0.301339 7.8125 0 7.54883 0 7.22656V5.46875C0 4.1748 1.19978 3.125 2.67857 3.125H5.35714V0.585938C5.35714 0.263672 5.65848 0 6.02679 0H8.25893C8.62723 0 8.92857 0.263672 8.92857 0.585938V3.125H16.0714V0.585938C16.0714 0.263672 16.3728 0 16.7411 0H18.9732C19.3415 0 19.6429 0.263672 19.6429 0.585938V3.125H22.3214C23.8002 3.125 25 4.1748 25 5.46875V7.22656C25 7.54883 24.6987 7.8125 24.3304 7.8125ZM0.669643 9.375H24.3304C24.6987 9.375 25 9.63867 25 9.96094V22.6562C25 23.9502 23.8002 25 22.3214 25H2.67857C1.19978 25 0 23.9502 0 22.6562V9.96094C0 9.63867 0.301339 9.375 0.669643 9.375ZM18.3036 16.2109C18.3036 15.8887 18.0022 15.625 17.6339 15.625H14.2857V12.6953C14.2857 12.373 13.9844 12.1094 13.6161 12.1094H11.3839C11.0156 12.1094 10.7143 12.373 10.7143 12.6953V15.625H7.36607C6.99777 15.625 6.69643 15.8887 6.69643 16.2109V18.1641C6.69643 18.4863 6.99777 18.75 7.36607 18.75H10.7143V21.6797C10.7143 22.002 11.0156 22.2656 11.3839 22.2656H13.6161C13.9844 22.2656 14.2857 22.002 14.2857 21.6797V18.75H17.6339C18.0022 18.75 18.3036 18.4863 18.3036 18.1641V16.2109Z" fill="#FFFEFE"/>
</svg>
