<?xml version="1.0" encoding="UTF-8"?>
<svg version="1.1" xmlns="http://www.w3.org/2000/svg" width="178" height="447">
<path d="M0 0 C58.74 0 117.48 0 178 0 C178 147.51 178 295.02 178 447 C119.26 447 60.52 447 0 447 C0 299.49 0 151.98 0 0 Z " fill="#FEFEFE" transform="translate(0,0)"/>
<path d="M0 0 C4.484723 2.98981533 7.34718451 5.94215105 8.625 11.25 C8.686875 12.11625 8.74875 12.9825 8.8125 13.875 C11.1225 13.875 13.4325 13.875 15.8125 13.875 C15.8125 14.535 15.8125 15.195 15.8125 15.875 C13.5025 15.875 11.1925 15.875 8.8125 15.875 C8.8125 19.175 8.8125 22.475 8.8125 25.875 C9.8025 25.875 10.7925 25.875 11.8125 25.875 C11.8125 26.535 11.8125 27.195 11.8125 27.875 C10.8225 27.875 9.8325 27.875 8.8125 27.875 C8.8125 31.505 8.8125 35.135 8.8125 38.875 C11.1225 38.875 13.4325 38.875 15.8125 38.875 C15.8125 39.535 15.8125 40.195 15.8125 40.875 C13.5025 40.875 11.1925 40.875 8.8125 40.875 C8.8125 44.175 8.8125 47.475 8.8125 50.875 C9.8025 50.875 10.7925 50.875 11.8125 50.875 C11.8125 51.535 11.8125 52.195 11.8125 52.875 C10.8225 52.875 9.8325 52.875 8.8125 52.875 C8.8125 56.505 8.8125 60.135 8.8125 63.875 C11.1225 63.875 13.4325 63.875 15.8125 63.875 C15.8125 64.535 15.8125 65.195 15.8125 65.875 C13.5025 65.875 11.1925 65.875 8.8125 65.875 C8.8125 69.505 8.8125 73.135 8.8125 76.875 C9.8025 76.875 10.7925 76.875 11.8125 76.875 C11.8125 77.535 11.8125 78.195 11.8125 78.875 C10.8225 78.875 9.8325 78.875 8.8125 78.875 C8.8125 82.175 8.8125 85.475 8.8125 88.875 C11.1225 88.875 13.4325 88.875 15.8125 88.875 C15.8125 89.535 15.8125 90.195 15.8125 90.875 C13.5025 90.875 11.1925 90.875 8.8125 90.875 C8.8125 94.505 8.8125 98.135 8.8125 101.875 C9.8025 101.875 10.7925 101.875 11.8125 101.875 C11.8125 102.535 11.8125 103.195 11.8125 103.875 C10.8225 103.875 9.8325 103.875 8.8125 103.875 C8.8125 107.505 8.8125 111.135 8.8125 114.875 C11.1225 114.875 13.4325 114.875 15.8125 114.875 C15.8125 115.535 15.8125 116.195 15.8125 116.875 C13.5025 116.875 11.1925 116.875 8.8125 116.875 C8.8125 120.175 8.8125 123.475 8.8125 126.875 C9.8025 126.875 10.7925 126.875 11.8125 126.875 C11.8125 127.535 11.8125 128.195 11.8125 128.875 C10.8225 128.875 9.8325 128.875 8.8125 128.875 C8.8125 132.505 8.8125 136.135 8.8125 139.875 C11.1225 139.875 13.4325 139.875 15.8125 139.875 C15.8125 140.535 15.8125 141.195 15.8125 141.875 C13.5025 141.875 11.1925 141.875 8.8125 141.875 C8.8125 145.505 8.8125 149.135 8.8125 152.875 C9.8025 152.875 10.7925 152.875 11.8125 152.875 C11.8125 153.535 11.8125 154.195 11.8125 154.875 C10.8225 154.875 9.8325 154.875 8.8125 154.875 C8.8125 158.175 8.8125 161.475 8.8125 164.875 C11.1225 164.875 13.4325 164.875 15.8125 164.875 C15.8125 165.535 15.8125 166.195 15.8125 166.875 C13.5025 166.875 11.1925 166.875 8.8125 166.875 C8.8125 170.505 8.8125 174.135 8.8125 177.875 C9.8025 177.875 10.7925 177.875 11.8125 177.875 C11.8125 178.535 11.8125 179.195 11.8125 179.875 C10.8225 179.875 9.8325 179.875 8.8125 179.875 C8.8125 183.505 8.8125 187.135 8.8125 190.875 C11.1225 190.875 13.4325 190.875 15.8125 190.875 C15.8125 191.535 15.8125 192.195 15.8125 192.875 C13.5025 192.875 11.1925 192.875 8.8125 192.875 C8.8125 196.175 8.8125 199.475 8.8125 202.875 C9.8025 202.875 10.7925 202.875 11.8125 202.875 C11.8125 203.535 11.8125 204.195 11.8125 204.875 C10.8225 204.875 9.8325 204.875 8.8125 204.875 C8.8125 208.505 8.8125 212.135 8.8125 215.875 C11.1225 215.875 13.4325 215.875 15.8125 215.875 C15.8125 216.535 15.8125 217.195 15.8125 217.875 C13.5025 217.875 11.1925 217.875 8.8125 217.875 C8.8125 221.505 8.8125 225.135 8.8125 228.875 C9.8025 228.875 10.7925 228.875 11.8125 228.875 C11.8125 229.535 11.8125 230.195 11.8125 230.875 C10.8225 230.875 9.8325 230.875 8.8125 230.875 C8.8125 234.175 8.8125 237.475 8.8125 240.875 C11.1225 240.875 13.4325 240.875 15.8125 240.875 C15.8125 241.535 15.8125 242.195 15.8125 242.875 C13.5025 242.875 11.1925 242.875 8.8125 242.875 C8.8125 246.505 8.8125 250.135 8.8125 253.875 C9.8025 253.875 10.7925 253.875 11.8125 253.875 C11.8125 254.535 11.8125 255.195 11.8125 255.875 C10.8225 255.875 9.8325 255.875 8.8125 255.875 C8.8125 259.505 8.8125 263.135 8.8125 266.875 C11.1225 266.875 13.4325 266.875 15.8125 266.875 C15.8125 267.535 15.8125 268.195 15.8125 268.875 C13.5025 268.875 11.1925 268.875 8.8125 268.875 C8.8125 272.175 8.8125 275.475 8.8125 278.875 C9.8025 278.875 10.7925 278.875 11.8125 278.875 C11.8125 279.535 11.8125 280.195 11.8125 280.875 C10.8225 280.875 9.8325 280.875 8.8125 280.875 C8.8125 284.505 8.8125 288.135 8.8125 291.875 C11.1225 291.875 13.4325 291.875 15.8125 291.875 C15.8125 292.535 15.8125 293.195 15.8125 293.875 C13.5025 293.875 11.1925 293.875 8.8125 293.875 C8.8125 297.505 8.8125 301.135 8.8125 304.875 C9.8025 304.875 10.7925 304.875 11.8125 304.875 C11.8125 305.535 11.8125 306.195 11.8125 306.875 C10.8225 306.875 9.8325 306.875 8.8125 306.875 C8.8125 310.175 8.8125 313.475 8.8125 316.875 C11.1225 316.875 13.4325 316.875 15.8125 316.875 C15.8125 317.535 15.8125 318.195 15.8125 318.875 C13.5025 318.875 11.1925 318.875 8.8125 318.875 C9.6729139 323.20729715 9.6729139 323.20729715 11.8125 326.875 C13.46378845 335.13144225 14.61204594 344.58680061 9.8125 351.875 C9.27625 352.7825 8.74 353.69 8.1875 354.625 C7.73375 355.3675 7.28 356.11 6.8125 356.875 C6.4825 357.535 6.1525 358.195 5.8125 358.875 C-0.29506868 362.40381746 -6.23922136 362.68917912 -13.1875 361.875 C-19.3748681 360.13964467 -23.71062177 356.20104595 -27.1875 350.875 C-29.86664996 345.33319666 -29.84846724 339.91812903 -29.1875 333.875 C-28.38480392 331.63350906 -27.42015503 329.74459734 -26.2109375 327.69921875 C-24.63265162 324.88601452 -23.96696619 321.99286477 -23.1875 318.875 C-25.4975 318.875 -27.8075 318.875 -30.1875 318.875 C-30.1875 318.215 -30.1875 317.555 -30.1875 316.875 C-27.8775 316.875 -25.5675 316.875 -23.1875 316.875 C-23.1875 313.575 -23.1875 310.275 -23.1875 306.875 C-24.1775 306.875 -25.1675 306.875 -26.1875 306.875 C-26.1875 306.215 -26.1875 305.555 -26.1875 304.875 C-25.1975 304.875 -24.2075 304.875 -23.1875 304.875 C-23.1875 301.245 -23.1875 297.615 -23.1875 293.875 C-25.4975 293.875 -27.8075 293.875 -30.1875 293.875 C-30.1875 293.215 -30.1875 292.555 -30.1875 291.875 C-27.8775 291.875 -25.5675 291.875 -23.1875 291.875 C-23.1875 288.245 -23.1875 284.615 -23.1875 280.875 C-24.1775 280.875 -25.1675 280.875 -26.1875 280.875 C-26.1875 280.215 -26.1875 279.555 -26.1875 278.875 C-25.1975 278.875 -24.2075 278.875 -23.1875 278.875 C-23.1875 275.575 -23.1875 272.275 -23.1875 268.875 C-25.4975 268.875 -27.8075 268.875 -30.1875 268.875 C-30.1875 268.215 -30.1875 267.555 -30.1875 266.875 C-27.8775 266.875 -25.5675 266.875 -23.1875 266.875 C-23.1875 263.245 -23.1875 259.615 -23.1875 255.875 C-24.1775 255.875 -25.1675 255.875 -26.1875 255.875 C-26.1875 255.215 -26.1875 254.555 -26.1875 253.875 C-25.1975 253.875 -24.2075 253.875 -23.1875 253.875 C-23.1875 250.245 -23.1875 246.615 -23.1875 242.875 C-25.4975 242.875 -27.8075 242.875 -30.1875 242.875 C-30.1875 242.215 -30.1875 241.555 -30.1875 240.875 C-27.8775 240.875 -25.5675 240.875 -23.1875 240.875 C-23.1875 237.575 -23.1875 234.275 -23.1875 230.875 C-24.1775 230.875 -25.1675 230.875 -26.1875 230.875 C-26.1875 230.215 -26.1875 229.555 -26.1875 228.875 C-25.1975 228.875 -24.2075 228.875 -23.1875 228.875 C-23.1875 225.245 -23.1875 221.615 -23.1875 217.875 C-25.4975 217.875 -27.8075 217.875 -30.1875 217.875 C-30.1875 217.215 -30.1875 216.555 -30.1875 215.875 C-27.8775 215.875 -25.5675 215.875 -23.1875 215.875 C-23.1875 212.245 -23.1875 208.615 -23.1875 204.875 C-24.1775 204.875 -25.1675 204.875 -26.1875 204.875 C-26.1875 204.215 -26.1875 203.555 -26.1875 202.875 C-25.1975 202.875 -24.2075 202.875 -23.1875 202.875 C-23.1875 199.575 -23.1875 196.275 -23.1875 192.875 C-25.4975 192.875 -27.8075 192.875 -30.1875 192.875 C-30.1875 192.215 -30.1875 191.555 -30.1875 190.875 C-27.8775 190.875 -25.5675 190.875 -23.1875 190.875 C-23.1875 187.245 -23.1875 183.615 -23.1875 179.875 C-24.1775 179.875 -25.1675 179.875 -26.1875 179.875 C-26.1875 179.215 -26.1875 178.555 -26.1875 177.875 C-25.1975 177.875 -24.2075 177.875 -23.1875 177.875 C-23.1875 174.245 -23.1875 170.615 -23.1875 166.875 C-25.4975 166.875 -27.8075 166.875 -30.1875 166.875 C-30.1875 166.215 -30.1875 165.555 -30.1875 164.875 C-27.8775 164.875 -25.5675 164.875 -23.1875 164.875 C-23.1875 161.575 -23.1875 158.275 -23.1875 154.875 C-24.1775 154.875 -25.1675 154.875 -26.1875 154.875 C-26.1875 154.215 -26.1875 153.555 -26.1875 152.875 C-25.1975 152.875 -24.2075 152.875 -23.1875 152.875 C-23.1875 149.245 -23.1875 145.615 -23.1875 141.875 C-25.4975 141.875 -27.8075 141.875 -30.1875 141.875 C-30.1875 141.215 -30.1875 140.555 -30.1875 139.875 C-27.8775 139.875 -25.5675 139.875 -23.1875 139.875 C-23.1875 136.245 -23.1875 132.615 -23.1875 128.875 C-24.1775 128.875 -25.1675 128.875 -26.1875 128.875 C-26.1875 128.215 -26.1875 127.555 -26.1875 126.875 C-25.1975 126.875 -24.2075 126.875 -23.1875 126.875 C-23.1875 123.575 -23.1875 120.275 -23.1875 116.875 C-25.4975 116.875 -27.8075 116.875 -30.1875 116.875 C-30.1875 116.215 -30.1875 115.555 -30.1875 114.875 C-27.8775 114.875 -25.5675 114.875 -23.1875 114.875 C-23.1875 111.245 -23.1875 107.615 -23.1875 103.875 C-24.1775 103.875 -25.1675 103.875 -26.1875 103.875 C-26.1875 103.215 -26.1875 102.555 -26.1875 101.875 C-25.1975 101.875 -24.2075 101.875 -23.1875 101.875 C-23.1875 98.245 -23.1875 94.615 -23.1875 90.875 C-25.4975 90.875 -27.8075 90.875 -30.1875 90.875 C-30.1875 90.215 -30.1875 89.555 -30.1875 88.875 C-27.8775 88.875 -25.5675 88.875 -23.1875 88.875 C-23.1875 85.575 -23.1875 82.275 -23.1875 78.875 C-24.1775 78.875 -25.1675 78.875 -26.1875 78.875 C-26.1875 78.215 -26.1875 77.555 -26.1875 76.875 C-25.1975 76.875 -24.2075 76.875 -23.1875 76.875 C-23.1875 73.245 -23.1875 69.615 -23.1875 65.875 C-25.4975 65.875 -27.8075 65.875 -30.1875 65.875 C-30.1875 65.215 -30.1875 64.555 -30.1875 63.875 C-27.8775 63.875 -25.5675 63.875 -23.1875 63.875 C-23.1875 60.245 -23.1875 56.615 -23.1875 52.875 C-24.1775 52.875 -25.1675 52.875 -26.1875 52.875 C-26.1875 52.215 -26.1875 51.555 -26.1875 50.875 C-25.1975 50.875 -24.2075 50.875 -23.1875 50.875 C-23.1875 47.575 -23.1875 44.275 -23.1875 40.875 C-25.4975 40.875 -27.8075 40.875 -30.1875 40.875 C-30.1875 40.215 -30.1875 39.555 -30.1875 38.875 C-27.8775 38.875 -25.5675 38.875 -23.1875 38.875 C-23.1875 35.245 -23.1875 31.615 -23.1875 27.875 C-24.1775 27.875 -25.1675 27.875 -26.1875 27.875 C-26.1875 27.215 -26.1875 26.555 -26.1875 25.875 C-25.1975 25.875 -24.2075 25.875 -23.1875 25.875 C-23.1875 22.575 -23.1875 19.275 -23.1875 15.875 C-25.4975 15.875 -27.8075 15.875 -30.1875 15.875 C-30.1875 15.215 -30.1875 14.555 -30.1875 13.875 C-27.8775 13.875 -25.5675 13.875 -23.1875 13.875 C-23.14625 13.029375 -23.105 12.18375 -23.0625 11.3125 C-21.70263293 5.97016507 -18.51699886 2.28495984 -13.8125 -0.5625 C-8.79317519 -1.6380696 -4.79637819 -1.69283936 0 0 Z " fill="#FEFDFD" transform="translate(95.1875,4.125)"/>
<path d="M0 0 C4.484723 2.98981533 7.34718451 5.94215105 8.625 11.25 C8.686875 12.11625 8.74875 12.9825 8.8125 13.875 C11.1225 13.875 13.4325 13.875 15.8125 13.875 C15.8125 14.535 15.8125 15.195 15.8125 15.875 C13.5025 15.875 11.1925 15.875 8.8125 15.875 C8.8125 19.175 8.8125 22.475 8.8125 25.875 C9.8025 25.875 10.7925 25.875 11.8125 25.875 C11.8125 26.535 11.8125 27.195 11.8125 27.875 C10.8225 27.875 9.8325 27.875 8.8125 27.875 C8.8125 31.505 8.8125 35.135 8.8125 38.875 C11.1225 38.875 13.4325 38.875 15.8125 38.875 C15.8125 39.535 15.8125 40.195 15.8125 40.875 C13.5025 40.875 11.1925 40.875 8.8125 40.875 C8.8125 44.175 8.8125 47.475 8.8125 50.875 C9.8025 50.875 10.7925 50.875 11.8125 50.875 C11.8125 51.535 11.8125 52.195 11.8125 52.875 C10.8225 52.875 9.8325 52.875 8.8125 52.875 C8.8125 56.505 8.8125 60.135 8.8125 63.875 C11.1225 63.875 13.4325 63.875 15.8125 63.875 C15.8125 64.535 15.8125 65.195 15.8125 65.875 C13.5025 65.875 11.1925 65.875 8.8125 65.875 C8.8125 69.505 8.8125 73.135 8.8125 76.875 C9.8025 76.875 10.7925 76.875 11.8125 76.875 C11.8125 77.535 11.8125 78.195 11.8125 78.875 C10.8225 78.875 9.8325 78.875 8.8125 78.875 C8.8125 82.175 8.8125 85.475 8.8125 88.875 C11.1225 88.875 13.4325 88.875 15.8125 88.875 C15.8125 89.535 15.8125 90.195 15.8125 90.875 C13.5025 90.875 11.1925 90.875 8.8125 90.875 C8.8125 94.505 8.8125 98.135 8.8125 101.875 C9.8025 101.875 10.7925 101.875 11.8125 101.875 C11.8125 102.535 11.8125 103.195 11.8125 103.875 C10.8225 103.875 9.8325 103.875 8.8125 103.875 C8.8125 107.505 8.8125 111.135 8.8125 114.875 C11.1225 114.875 13.4325 114.875 15.8125 114.875 C15.8125 115.535 15.8125 116.195 15.8125 116.875 C13.5025 116.875 11.1925 116.875 8.8125 116.875 C8.8125 120.175 8.8125 123.475 8.8125 126.875 C9.8025 126.875 10.7925 126.875 11.8125 126.875 C11.8125 127.535 11.8125 128.195 11.8125 128.875 C10.8225 128.875 9.8325 128.875 8.8125 128.875 C8.8125 132.505 8.8125 136.135 8.8125 139.875 C11.1225 139.875 13.4325 139.875 15.8125 139.875 C15.8125 140.535 15.8125 141.195 15.8125 141.875 C13.5025 141.875 11.1925 141.875 8.8125 141.875 C8.8125 145.505 8.8125 149.135 8.8125 152.875 C9.8025 152.875 10.7925 152.875 11.8125 152.875 C11.8125 153.535 11.8125 154.195 11.8125 154.875 C10.8225 154.875 9.8325 154.875 8.8125 154.875 C8.8125 158.175 8.8125 161.475 8.8125 164.875 C11.1225 164.875 13.4325 164.875 15.8125 164.875 C15.8125 165.535 15.8125 166.195 15.8125 166.875 C13.5025 166.875 11.1925 166.875 8.8125 166.875 C8.8125 170.505 8.8125 174.135 8.8125 177.875 C9.8025 177.875 10.7925 177.875 11.8125 177.875 C11.8125 178.535 11.8125 179.195 11.8125 179.875 C10.8225 179.875 9.8325 179.875 8.8125 179.875 C8.8125 183.505 8.8125 187.135 8.8125 190.875 C11.1225 190.875 13.4325 190.875 15.8125 190.875 C15.8125 191.535 15.8125 192.195 15.8125 192.875 C13.5025 192.875 11.1925 192.875 8.8125 192.875 C8.8125 196.175 8.8125 199.475 8.8125 202.875 C9.8025 202.875 10.7925 202.875 11.8125 202.875 C11.8125 203.535 11.8125 204.195 11.8125 204.875 C10.8225 204.875 9.8325 204.875 8.8125 204.875 C8.8125 208.505 8.8125 212.135 8.8125 215.875 C11.1225 215.875 13.4325 215.875 15.8125 215.875 C15.8125 216.535 15.8125 217.195 15.8125 217.875 C13.5025 217.875 11.1925 217.875 8.8125 217.875 C8.8125 221.505 8.8125 225.135 8.8125 228.875 C9.8025 228.875 10.7925 228.875 11.8125 228.875 C11.8125 229.535 11.8125 230.195 11.8125 230.875 C10.8225 230.875 9.8325 230.875 8.8125 230.875 C8.8125 234.175 8.8125 237.475 8.8125 240.875 C11.1225 240.875 13.4325 240.875 15.8125 240.875 C15.8125 241.535 15.8125 242.195 15.8125 242.875 C13.5025 242.875 11.1925 242.875 8.8125 242.875 C8.8125 246.505 8.8125 250.135 8.8125 253.875 C9.8025 253.875 10.7925 253.875 11.8125 253.875 C11.8125 254.535 11.8125 255.195 11.8125 255.875 C10.8225 255.875 9.8325 255.875 8.8125 255.875 C8.8125 259.505 8.8125 263.135 8.8125 266.875 C11.1225 266.875 13.4325 266.875 15.8125 266.875 C15.8125 267.535 15.8125 268.195 15.8125 268.875 C13.5025 268.875 11.1925 268.875 8.8125 268.875 C8.8125 272.175 8.8125 275.475 8.8125 278.875 C9.8025 278.875 10.7925 278.875 11.8125 278.875 C11.8125 279.535 11.8125 280.195 11.8125 280.875 C10.8225 280.875 9.8325 280.875 8.8125 280.875 C8.8125 284.505 8.8125 288.135 8.8125 291.875 C11.1225 291.875 13.4325 291.875 15.8125 291.875 C15.8125 292.535 15.8125 293.195 15.8125 293.875 C13.5025 293.875 11.1925 293.875 8.8125 293.875 C8.8125 297.505 8.8125 301.135 8.8125 304.875 C9.8025 304.875 10.7925 304.875 11.8125 304.875 C11.8125 305.535 11.8125 306.195 11.8125 306.875 C10.8225 306.875 9.8325 306.875 8.8125 306.875 C8.8125 310.175 8.8125 313.475 8.8125 316.875 C11.1225 316.875 13.4325 316.875 15.8125 316.875 C15.8125 317.535 15.8125 318.195 15.8125 318.875 C13.5025 318.875 11.1925 318.875 8.8125 318.875 C9.121875 319.9475 9.43125 321.02 9.75 322.125 C10.48062096 324.70366222 11.18732904 327.27012102 11.8125 329.875 C10.8225 329.215 9.8325 328.555 8.8125 327.875 C8.8125 327.215 8.8125 326.555 8.8125 325.875 C8.1525 325.875 7.4925 325.875 6.8125 325.875 C6.81228263 325.20901163 6.81206526 324.54302326 6.81184131 323.85685343 C6.79832786 284.39213358 6.75885856 244.92751613 6.68564438 205.4628599 C6.67687754 200.72515888 6.66832775 195.98745751 6.65991211 191.24975586 C6.65823305 190.30655776 6.65655398 189.36335967 6.65482404 188.39157981 C6.62814827 173.11590122 6.61905855 157.84026014 6.61645857 142.56456064 C6.61340001 126.89233233 6.59146452 111.22021258 6.55197543 95.5480333 C6.52820085 85.8760437 6.5191815 76.20427076 6.52898689 66.53225596 C6.53429927 59.90137264 6.52128928 53.27068361 6.4938371 46.63985562 C6.47853623 42.81311925 6.47134684 38.98681766 6.48590279 35.16006851 C6.50147444 31.01077988 6.4784798 26.86259497 6.45173645 22.71336365 C6.46240971 21.50421388 6.47308297 20.2950641 6.48407966 19.04927343 C6.3994601 12.03036207 5.81942491 7.97440276 0.8125 2.875 C-3.96292818 1.23429403 -9.06808342 1.39331441 -13.9375 2.5 C-17.07973873 4.420257 -18.808964 6.50825086 -20.1875 9.875 C-20.78634048 14.11217257 -20.73384318 18.31968691 -20.70648193 22.59310913 C-20.71773381 24.53640277 -20.71773381 24.53640277 -20.729213 26.51895487 C-20.74946343 30.10841756 -20.74492211 33.69748481 -20.73630548 37.28697848 C-20.73136056 41.16016514 -20.74944561 45.03325248 -20.76472473 48.90640259 C-20.78804041 55.61472218 -20.79678512 62.32293367 -20.79561615 69.03129196 C-20.79394711 78.73040924 -20.81427959 88.42938237 -20.83997145 98.1284612 C-20.88105829 113.86476789 -20.90436685 129.60104866 -20.91650391 145.33740234 C-20.92833154 160.62323498 -20.94852663 175.90901882 -20.97998047 191.19482422 C-20.98191657 192.13713848 -20.98385267 193.07945274 -20.98584744 194.05032198 C-20.995612 198.77766498 -21.00554111 203.50500762 -21.01555204 208.23235011 C-21.09838174 247.44654354 -21.15236269 286.66073653 -21.1875 325.875 C-21.8475 325.875 -22.5075 325.875 -23.1875 325.875 C-23.496875 326.82375 -23.80625 327.7725 -24.125 328.75 C-25.1875 331.875 -25.1875 331.875 -26.1875 333.875 C-26.68928565 340.32101568 -27.14979274 346.45986659 -23.1875 351.875 C-18.32588652 356.73661348 -14.21071336 359.16117094 -7.3125 359.1875 C-2.48661634 359.12864776 0.62646989 358.4086498 4.8125 355.875 C5.4725 356.205 6.1325 356.535 6.8125 356.875 C5.49319168 359.51361665 3.77466459 360.18917779 1.1015625 361.26171875 C-4.99541308 362.89520879 -11.74938676 362.90106482 -17.5625 360.3125 C-23.24336161 356.9749938 -27.15477713 352.12100299 -29.1875 345.875 C-29.98761639 339.1298328 -29.68960172 333.58334227 -26.2109375 327.69921875 C-24.63265162 324.88601452 -23.96696619 321.99286477 -23.1875 318.875 C-25.4975 318.875 -27.8075 318.875 -30.1875 318.875 C-30.1875 318.215 -30.1875 317.555 -30.1875 316.875 C-27.8775 316.875 -25.5675 316.875 -23.1875 316.875 C-23.1875 313.575 -23.1875 310.275 -23.1875 306.875 C-24.1775 306.875 -25.1675 306.875 -26.1875 306.875 C-26.1875 306.215 -26.1875 305.555 -26.1875 304.875 C-25.1975 304.875 -24.2075 304.875 -23.1875 304.875 C-23.1875 301.245 -23.1875 297.615 -23.1875 293.875 C-25.4975 293.875 -27.8075 293.875 -30.1875 293.875 C-30.1875 293.215 -30.1875 292.555 -30.1875 291.875 C-27.8775 291.875 -25.5675 291.875 -23.1875 291.875 C-23.1875 288.245 -23.1875 284.615 -23.1875 280.875 C-24.1775 280.875 -25.1675 280.875 -26.1875 280.875 C-26.1875 280.215 -26.1875 279.555 -26.1875 278.875 C-25.1975 278.875 -24.2075 278.875 -23.1875 278.875 C-23.1875 275.575 -23.1875 272.275 -23.1875 268.875 C-25.4975 268.875 -27.8075 268.875 -30.1875 268.875 C-30.1875 268.215 -30.1875 267.555 -30.1875 266.875 C-27.8775 266.875 -25.5675 266.875 -23.1875 266.875 C-23.1875 263.245 -23.1875 259.615 -23.1875 255.875 C-24.1775 255.875 -25.1675 255.875 -26.1875 255.875 C-26.1875 255.215 -26.1875 254.555 -26.1875 253.875 C-25.1975 253.875 -24.2075 253.875 -23.1875 253.875 C-23.1875 250.245 -23.1875 246.615 -23.1875 242.875 C-25.4975 242.875 -27.8075 242.875 -30.1875 242.875 C-30.1875 242.215 -30.1875 241.555 -30.1875 240.875 C-27.8775 240.875 -25.5675 240.875 -23.1875 240.875 C-23.1875 237.575 -23.1875 234.275 -23.1875 230.875 C-24.1775 230.875 -25.1675 230.875 -26.1875 230.875 C-26.1875 230.215 -26.1875 229.555 -26.1875 228.875 C-25.1975 228.875 -24.2075 228.875 -23.1875 228.875 C-23.1875 225.245 -23.1875 221.615 -23.1875 217.875 C-25.4975 217.875 -27.8075 217.875 -30.1875 217.875 C-30.1875 217.215 -30.1875 216.555 -30.1875 215.875 C-27.8775 215.875 -25.5675 215.875 -23.1875 215.875 C-23.1875 212.245 -23.1875 208.615 -23.1875 204.875 C-24.1775 204.875 -25.1675 204.875 -26.1875 204.875 C-26.1875 204.215 -26.1875 203.555 -26.1875 202.875 C-25.1975 202.875 -24.2075 202.875 -23.1875 202.875 C-23.1875 199.575 -23.1875 196.275 -23.1875 192.875 C-25.4975 192.875 -27.8075 192.875 -30.1875 192.875 C-30.1875 192.215 -30.1875 191.555 -30.1875 190.875 C-27.8775 190.875 -25.5675 190.875 -23.1875 190.875 C-23.1875 187.245 -23.1875 183.615 -23.1875 179.875 C-24.1775 179.875 -25.1675 179.875 -26.1875 179.875 C-26.1875 179.215 -26.1875 178.555 -26.1875 177.875 C-25.1975 177.875 -24.2075 177.875 -23.1875 177.875 C-23.1875 174.245 -23.1875 170.615 -23.1875 166.875 C-25.4975 166.875 -27.8075 166.875 -30.1875 166.875 C-30.1875 166.215 -30.1875 165.555 -30.1875 164.875 C-27.8775 164.875 -25.5675 164.875 -23.1875 164.875 C-23.1875 161.575 -23.1875 158.275 -23.1875 154.875 C-24.1775 154.875 -25.1675 154.875 -26.1875 154.875 C-26.1875 154.215 -26.1875 153.555 -26.1875 152.875 C-25.1975 152.875 -24.2075 152.875 -23.1875 152.875 C-23.1875 149.245 -23.1875 145.615 -23.1875 141.875 C-25.4975 141.875 -27.8075 141.875 -30.1875 141.875 C-30.1875 141.215 -30.1875 140.555 -30.1875 139.875 C-27.8775 139.875 -25.5675 139.875 -23.1875 139.875 C-23.1875 136.245 -23.1875 132.615 -23.1875 128.875 C-24.1775 128.875 -25.1675 128.875 -26.1875 128.875 C-26.1875 128.215 -26.1875 127.555 -26.1875 126.875 C-25.1975 126.875 -24.2075 126.875 -23.1875 126.875 C-23.1875 123.575 -23.1875 120.275 -23.1875 116.875 C-25.4975 116.875 -27.8075 116.875 -30.1875 116.875 C-30.1875 116.215 -30.1875 115.555 -30.1875 114.875 C-27.8775 114.875 -25.5675 114.875 -23.1875 114.875 C-23.1875 111.245 -23.1875 107.615 -23.1875 103.875 C-24.1775 103.875 -25.1675 103.875 -26.1875 103.875 C-26.1875 103.215 -26.1875 102.555 -26.1875 101.875 C-25.1975 101.875 -24.2075 101.875 -23.1875 101.875 C-23.1875 98.245 -23.1875 94.615 -23.1875 90.875 C-25.4975 90.875 -27.8075 90.875 -30.1875 90.875 C-30.1875 90.215 -30.1875 89.555 -30.1875 88.875 C-27.8775 88.875 -25.5675 88.875 -23.1875 88.875 C-23.1875 85.575 -23.1875 82.275 -23.1875 78.875 C-24.1775 78.875 -25.1675 78.875 -26.1875 78.875 C-26.1875 78.215 -26.1875 77.555 -26.1875 76.875 C-25.1975 76.875 -24.2075 76.875 -23.1875 76.875 C-23.1875 73.245 -23.1875 69.615 -23.1875 65.875 C-25.4975 65.875 -27.8075 65.875 -30.1875 65.875 C-30.1875 65.215 -30.1875 64.555 -30.1875 63.875 C-27.8775 63.875 -25.5675 63.875 -23.1875 63.875 C-23.1875 60.245 -23.1875 56.615 -23.1875 52.875 C-24.1775 52.875 -25.1675 52.875 -26.1875 52.875 C-26.1875 52.215 -26.1875 51.555 -26.1875 50.875 C-25.1975 50.875 -24.2075 50.875 -23.1875 50.875 C-23.1875 47.575 -23.1875 44.275 -23.1875 40.875 C-25.4975 40.875 -27.8075 40.875 -30.1875 40.875 C-30.1875 40.215 -30.1875 39.555 -30.1875 38.875 C-27.8775 38.875 -25.5675 38.875 -23.1875 38.875 C-23.1875 35.245 -23.1875 31.615 -23.1875 27.875 C-24.1775 27.875 -25.1675 27.875 -26.1875 27.875 C-26.1875 27.215 -26.1875 26.555 -26.1875 25.875 C-25.1975 25.875 -24.2075 25.875 -23.1875 25.875 C-23.1875 22.575 -23.1875 19.275 -23.1875 15.875 C-25.4975 15.875 -27.8075 15.875 -30.1875 15.875 C-30.1875 15.215 -30.1875 14.555 -30.1875 13.875 C-27.8775 13.875 -25.5675 13.875 -23.1875 13.875 C-23.14625 13.029375 -23.105 12.18375 -23.0625 11.3125 C-21.70263293 5.97016507 -18.51699886 2.28495984 -13.8125 -0.5625 C-8.79317519 -1.6380696 -4.79637819 -1.69283936 0 0 Z " fill="#C5C5C5" transform="translate(95.1875,4.125)"/>
<path d="M0 0 C3.3 0 6.6 0 10 0 C10.22395236 18.70596915 10.42490298 37.41205013 10.59840012 56.11855698 C10.67949369 64.80412922 10.76814029 73.48950221 10.87451172 82.17480469 C10.96719557 89.74406621 11.04576538 97.31331943 11.10732102 104.88290048 C11.14041571 108.89176183 11.18062133 112.90026964 11.2377243 116.90886688 C11.29123819 120.68115756 11.32589191 124.45314945 11.34602928 128.22576141 C11.3567577 129.61095343 11.3744015 130.99611164 11.39944649 132.38111877 C11.43259447 134.27123944 11.43852597 136.16177917 11.4430542 138.05218506 C11.45411572 139.1104034 11.46517723 140.16862175 11.47657394 141.25890732 C10.87714493 144.70662093 9.723302 145.8718049 7 148 C4.5 148.5625 4.5 148.5625 2 148 C-0.95399602 145.28551717 -1.92618131 143.76771435 -2.3125 139.75 C-2 137 -2 137 -1 136 C-0.89147769 134.24144233 -0.85312758 132.47852601 -0.84178162 130.71665955 C-0.8319928 129.57095993 -0.82220398 128.42526031 -0.81211853 127.24484253 C-0.80348534 125.34268478 -0.80348534 125.34268478 -0.79467773 123.40209961 C-0.78510434 122.06206456 -0.77509458 120.72203256 -0.76467896 119.38200378 C-0.73756542 115.73343851 -0.7165909 112.08486021 -0.69667697 108.43624949 C-0.67485705 104.62719884 -0.64744889 100.81818861 -0.62062073 97.00917053 C-0.57063966 89.79145178 -0.52572099 82.57371066 -0.48259836 75.35594803 C-0.43327215 67.14081872 -0.37833696 58.92572996 -0.32291877 50.71063983 C-0.20901565 33.80713068 -0.10219485 16.90358391 0 0 Z " fill="#D5383C" transform="translate(83,203)"/>
<path d="M0 0 C0.66 0 1.32 0 2 0 C2 42.24 2 84.48 2 128 C1.01 128.33 0.02 128.66 -1 129 C-1.02332882 112.32814548 -1.04097909 95.65629624 -1.05181217 78.98442936 C-1.05697517 71.24392718 -1.06401793 63.50343513 -1.07543945 55.76293945 C-1.08538619 49.01872849 -1.0918534 42.27452485 -1.09408849 35.53030676 C-1.09539562 31.95713134 -1.09848158 28.3839769 -1.10573006 24.81080818 C-1.11374372 20.82837649 -1.11399114 16.84596559 -1.11352539 12.86352539 C-1.11712067 11.67022614 -1.12071594 10.47692688 -1.12442017 9.24746704 C-1.1230455 8.16908066 -1.12167084 7.09069427 -1.12025452 5.97962952 C-1.12117631 5.03663529 -1.1220981 4.09364107 -1.12304783 3.12207127 C-1 1 -1 1 0 0 Z " fill="#DC3537" transform="translate(89,207)"/>
<path d="M0 0 C3.3 0 6.6 0 10 0 C10.22395236 18.70596915 10.42490298 37.41205013 10.59840012 56.11855698 C10.67949369 64.80412922 10.76814029 73.48950221 10.87451172 82.17480469 C10.96719557 89.74406621 11.04576538 97.31331943 11.10732102 104.88290048 C11.14041571 108.89176183 11.18062133 112.90026964 11.2377243 116.90886688 C11.29123819 120.68115756 11.32589191 124.45314945 11.34602928 128.22576141 C11.3567577 129.61095343 11.3744015 130.99611164 11.39944649 132.38111877 C11.43259447 134.27123944 11.43852597 136.16177917 11.4430542 138.05218506 C11.45411572 139.1104034 11.46517723 140.16862175 11.47657394 141.25890732 C10.87714493 144.70662093 9.723302 145.8718049 7 148 C4.5 148.5625 4.5 148.5625 2 148 C-0.95399602 145.28551717 -1.92618131 143.76771435 -2.3125 139.75 C-2 137 -2 137 -1 136 C-0.89147769 134.24144233 -0.85312758 132.47852601 -0.84178162 130.71665955 C-0.8319928 129.57095993 -0.82220398 128.42526031 -0.81211853 127.24484253 C-0.80348534 125.34268478 -0.80348534 125.34268478 -0.79467773 123.40209961 C-0.78510434 122.06206456 -0.77509458 120.72203256 -0.76467896 119.38200378 C-0.73756542 115.73343851 -0.7165909 112.08486021 -0.69667697 108.43624949 C-0.67485705 104.62719884 -0.64744889 100.81818861 -0.62062073 97.00917053 C-0.57063966 89.79145178 -0.52572099 82.57371066 -0.48259836 75.35594803 C-0.43327215 67.14081872 -0.37833696 58.92572996 -0.32291877 50.71063983 C-0.20901565 33.80713068 -0.10219485 16.90358391 0 0 Z M1 1 C1 1.67660549 1 2.35321098 1 3.05031967 C1 137 1 137 0.4375 140.125 C-0.27282321 142.9349229 -0.27282321 142.9349229 1 145 C3.31 145 5.62 145 8 145 C9.87817113 141.3541384 9.90217694 139.21000105 9.26321602 135.24772453 C8.67510015 130.2255284 8.87146115 125.13732509 8.88647461 120.08813477 C8.88632858 118.79964127 8.88618256 117.51114777 8.8860321 116.18360901 C8.88574633 112.66759262 8.89160751 109.15161066 8.89860606 105.63560224 C8.90487621 101.95473739 8.90544629 98.27387168 8.90663147 94.59300232 C8.90973401 87.63044869 8.91793285 80.66791086 8.92798096 73.70536417 C8.93917559 65.77548791 8.94466098 57.84561088 8.94967639 49.91572869 C8.96011639 33.61047657 8.97769492 17.3052403 9 1 C6.36 1 3.72 1 1 1 Z " fill="#C55B5B" transform="translate(83,203)"/>
<path d="M0 0 C0.6921031 9.38184201 0.6921031 9.38184201 -2 13.875 C-4.92890096 19.00318247 -4.65618936 24.2563178 -4 30 C-2.08264441 35.85858651 1.655897 38.94484462 6.82421875 42.12109375 C11.28594057 43.92340508 16.28104935 43.44161303 21 43 C24.48706685 41.59501588 24.48706685 41.59501588 27 40 C27.99 40.495 27.99 40.495 29 41 C27.68069168 43.63861665 25.96216459 44.31417779 23.2890625 45.38671875 C17.19208692 47.02020879 10.43811324 47.02606482 4.625 44.4375 C-1.05586161 41.0999938 -4.96727713 36.24600299 -7 30 C-7.80011639 23.2548328 -7.50210172 17.70834227 -4.0234375 11.82421875 C-2.44515162 9.01101452 -1.77946619 6.11786477 -1 3 C-3.31 3 -5.62 3 -8 3 C-8 2.34 -8 1.68 -8 1 C-1.125 0 -1.125 0 0 0 Z " fill="#BEBEBE" transform="translate(73,320)"/>
<path d="M0 0 C1.98 0 3.96 0 6 0 C6.33 1.65 6.66 3.3 7 5 C7.99 4.34 8.98 3.68 10 3 C12.6875 3.375 12.6875 3.375 15 4 C15 5.65 15 7.3 15 9 C11.71303767 9.79953138 10.28976808 10.09658936 7 9 C6.67 9.33 6.34 9.66 6 10 C4.00041636 10.04080783 1.99954746 10.04254356 0 10 C0 6.7 0 3.4 0 0 Z " fill="#8E8E8E" transform="translate(9,430)"/>
<path d="M0 0 C3.51075416 2.34050277 5.44950705 4.3663135 7.8125 7.875 C7.44140625 10.06640625 7.44140625 10.06640625 6.8125 11.875 C6.42578125 11.23691406 6.0390625 10.59882813 5.640625 9.94140625 C5.11984375 9.11511719 4.5990625 8.28882813 4.0625 7.4375 C3.55203125 6.61378906 3.0415625 5.79007813 2.515625 4.94140625 C0.5805455 2.59356897 -0.22152866 2.20392225 -3.1875 1.875 C-9.97724221 1.48357772 -9.97724221 1.48357772 -16.1875 3.875 C-19.54935204 8.00527536 -20.96934364 11.7993485 -22.1875 16.875 C-24.8275 16.545 -27.4675 16.215 -30.1875 15.875 C-30.1875 15.215 -30.1875 14.555 -30.1875 13.875 C-27.8775 13.875 -25.5675 13.875 -23.1875 13.875 C-23.14625 13.029375 -23.105 12.18375 -23.0625 11.3125 C-21.70263293 5.97016507 -18.51699886 2.28495984 -13.8125 -0.5625 C-8.79317519 -1.6380696 -4.79637819 -1.69283936 0 0 Z " fill="#BDBDBD" transform="translate(95.1875,4.125)"/>
<path d="M0 0 C2.97 0 5.94 0 9 0 C9.33 2.64 9.66 5.28 10 8 C8.375 9.125 8.375 9.125 6 10 C0.63157895 8.63157895 0.63157895 8.63157895 -1 7 C-0.71269945 4.66055264 -0.38063221 2.3260857 0 0 Z " fill="#EFEFEF" transform="translate(62,370)"/>
<path d="M0 0 C0.99 0.33 1.98 0.66 3 1 C3.66 0.67 4.32 0.34 5 0 C7.6723621 -0.13415472 10.32250488 -0.04318541 13 0 C13.88293714 2.64881141 14 4.25192182 14 7 C9.71 7 5.42 7 1 7 C1 5.35 1 3.7 1 2 C0.34 1.67 -0.32 1.34 -1 1 C-0.67 0.67 -0.34 0.34 0 0 Z " fill="#CDCDCD" transform="translate(115,167)"/>
<path d="M0 0 C4.29 0 8.58 0 13 0 C14 4 14 4 13 7 C9.7 7 6.4 7 3 7 C3.33 5.35 3.66 3.7 4 2 C3.34 2 2.68 2 2 2 C1.67 4.31 1.34 6.62 1 9 C0.67 9 0.34 9 0 9 C0 6.03 0 3.06 0 0 Z " fill="#8C8C8C" transform="translate(71,433)"/>
<path d="M0 0 C1.32 0 2.64 0 4 0 C4 1.32 4 2.64 4 4 C3.34 4 2.68 4 2 4 C2 4.66 2 5.32 2 6 C3.98 6 5.96 6 8 6 C8 5.34 8 4.68 8 4 C7.34 3.67 6.68 3.34 6 3 C6 2.01 6 1.02 6 0 C12.15234375 -0.09765625 12.15234375 -0.09765625 14 0 C15 1 15 1 15.0625 3.5625 C15.041875 4.366875 15.02125 5.17125 15 6 C11.68929162 7.00109515 8.69915231 7.10356134 5.25 7.0625 C4.26515625 7.05347656 3.2803125 7.04445313 2.265625 7.03515625 C1.51796875 7.02355469 0.7703125 7.01195312 0 7 C0.185625 6.21625 0.37125 5.4325 0.5625 4.625 C1.25962266 2.02910225 1.25962266 2.02910225 0 0 Z " fill="#B7B7B7" transform="translate(114,16)"/>
<path d="M0 0 C0.8146875 0.00257812 1.629375 0.00515625 2.46875 0.0078125 C3.2834375 0.00523438 4.098125 0.00265625 4.9375 0 C6.96875 0.1328125 6.96875 0.1328125 7.96875 1.1328125 C8.00938832 2.79898365 8.011471 4.46669345 7.96875 6.1328125 C4.57044639 6.90956761 1.45755949 7.32663525 -2.03125 7.1328125 C-3.03125 6.1328125 -3.03125 6.1328125 -3.15625 3.6328125 C-2.98436596 0.19513162 -2.98436596 0.19513162 0 0 Z " fill="#CBCBCB" transform="translate(55.03125,40.8671875)"/>
<path d="M0 0 C3.3 0 6.6 0 10 0 C10 2.31 10 4.62 10 7 C6.7 7 3.4 7 0 7 C0 4.69 0 2.38 0 0 Z " fill="#C8C8C8" transform="translate(52,91)"/>
<path d="M0 0 C1.67542976 0.28604898 3.34385343 0.61781233 5 1 C5.33 3.31 5.66 5.62 6 8 C6.99 8 7.98 8 9 8 C9 8.66 9 9.32 9 10 C6.03 10 3.06 10 0 10 C-0.8299392 6.68024318 -1.18113914 4.35107416 -1 1 C-0.67 0.67 -0.34 0.34 0 0 Z " fill="#848484" transform="translate(140,430)"/>
<path d="M0 0 C0.66 0 1.32 0 2 0 C3 6.75 3 6.75 3 9 C2.01 9 1.02 9 0 9 C0 7.35 0 5.7 0 4 C-0.66 4 -1.32 4 -2 4 C-2 5.65 -2 7.3 -2 9 C-3.98 9 -5.96 9 -8 9 C-8 7.02 -8 5.04 -8 3 C-5.23735711 2.40267181 -2.83967231 2 0 2 C0 1.34 0 0.68 0 0 Z " fill="#878787" transform="translate(99,431)"/>
<path d="M0 0 C3.3 0 6.6 0 10 0 C10 2.31 10 4.62 10 7 C7.03 7 4.06 7 1 7 C0.67 4.69 0.34 2.38 0 0 Z " fill="#C6C6C6" transform="translate(52,66)"/>
<path d="M0 0 C0.598125 0.165 1.19625 0.33 1.8125 0.5 C4.25988354 1.05940195 5.63996734 0.75858193 8 0 C8.68707555 2.49064888 9 4.37886292 9 7 C5.7 7 2.4 7 -1 7 C-1.04254356 5.00045254 -1.04080783 2.99958364 -1 1 C-0.67 0.67 -0.34 0.34 0 0 Z " fill="#B7B7B7" transform="translate(115,243)"/>
<path d="M0 0 C2.97 0 5.94 0 9 0 C10.38550197 2.77100394 10.1877467 4.9334706 10 8 C9.01 9.485 9.01 9.485 8 11 C7.34 10.67 6.68 10.34 6 10 C6.66 7.36 7.32 4.72 8 2 C6.02 2 4.04 2 2 2 C2 2.66 2 3.32 2 4 C2.99 4 3.98 4 5 4 C5 4.66 5 5.32 5 6 C4.01 6 3.02 6 2 6 C2 7.32 2 8.64 2 10 C1.34 10 0.68 10 0 10 C0 6.7 0 3.4 0 0 Z " fill="#858585" transform="translate(166,430)"/>
<path d="M0 0 C2.97 0 5.94 0 9 0 C9 2.31 9 4.62 9 7 C6.03 7 3.06 7 0 7 C0.66 6.67 1.32 6.34 2 6 C2 5.34 2 4.68 2 4 C1.34 4 0.68 4 0 4 C0 2.68 0 1.36 0 0 Z " fill="#C9C9C9" transform="translate(53,167)"/>
<path d="M0 0 C1.32 0.33 2.64 0.66 4 1 C3.34 1 2.68 1 2 1 C2 1.66 2 2.32 2 3 C2.66 3 3.32 3 4 3 C4.66 2.01 5.32 1.02 6 0 C7.32 0 8.64 0 10 0 C10 2.31 10 4.62 10 7 C6.7 7 3.4 7 0 7 C0.66 6.67 1.32 6.34 2 6 C2 5.34 2 4.68 2 4 C1.34 4 0.68 4 0 4 C0 2.68 0 1.36 0 0 Z " fill="#C3C3C3" transform="translate(114,269)"/>
<path d="M0 0 C3.71734768 4.14134224 3.4932344 7.57901254 3.35546875 12.9453125 C2.86686961 17.1440436 1.72528825 20.71956044 -1 24 C-3.140625 25.2109375 -3.140625 25.2109375 -5 26 C-3.8699248 23.7398496 -2.73166823 21.54920263 -1.4375 19.375 C0.32409308 15.23908581 0.34353818 12.05008271 0.1875 7.625 C0.16719727 6.52091797 0.16719727 6.52091797 0.14648438 5.39453125 C0.11144869 3.59603257 0.05765288 1.79791578 0 0 Z " fill="#BDBDBD" transform="translate(107,334)"/>
<path d="M0 0 C0.66 0 1.32 0 2 0 C2 3.3 2 6.6 2 10 C0.02 10 -1.96 10 -4 10 C-5.125 5.25 -5.125 5.25 -4 3 C-2.68 3 -1.36 3 0 3 C0 2.01 0 1.02 0 0 Z " fill="#8B8B8B" transform="translate(30,430)"/>
<path d="M0 0 C1.32 0 2.64 0 4 0 C4 0.99 4 1.98 4 3 C4.66 3 5.32 3 6 3 C6.33 2.01 6.66 1.02 7 0 C7.66 0 8.32 0 9 0 C9 1.98 9 3.96 9 6 C4.545 6.495 4.545 6.495 0 7 C-0.38133299 5.0085944 -0.71325582 3.00720923 -1 1 C-0.67 0.67 -0.34 0.34 0 0 Z " fill="#BEBEBE" transform="translate(120,66)"/>
<path d="M0 0 C2.97 0 5.94 0 9 0 C9 2.31 9 4.62 9 7 C7.68 7 6.36 7 5 7 C4.34 6.01 3.68 5.02 3 4 C2.67 4.33 2.34 4.66 2 5 C2.66 5.66 3.32 6.32 4 7 C2.35 7 0.7 7 -1 7 C0 5 1 3 2 1 C1.34 0.67 0.68 0.34 0 0 Z " fill="#C5C5C5" transform="translate(53,243)"/>
<path d="M0 0 C3.3 0 6.6 0 10 0 C10 2.31 10 4.62 10 7 C7.5625 6.625 7.5625 6.625 5 6 C4.67 5.34 4.34 4.68 4 4 C3.67 4.99 3.34 5.98 3 7 C2.34 7 1.68 7 1 7 C1.66 5.02 2.32 3.04 3 1 C2.01 0.67 1.02 0.34 0 0 Z " fill="#C9C9C9" transform="translate(52,117)"/>
<path d="M0 0 C3.3 0 6.6 0 10 0 C10 1.98 10 3.96 10 6 C8.68 6.33 7.36 6.66 6 7 C5.34 6.01 4.68 5.02 4 4 C3.67 4.99 3.34 5.98 3 7 C2.34 7 1.68 7 1 7 C1.66 5.02 2.32 3.04 3 1 C2.01 0.67 1.02 0.34 0 0 Z " fill="#C4C4C4" transform="translate(119,91)"/>
<path d="M0 0 C1.32 0 2.64 0 4 0 C4 0.66 4 1.32 4 2 C3.01 2.33 2.02 2.66 1 3 C1.99 3.33 2.98 3.66 4 4 C4 5.65 4 7.3 4 9 C2.34385343 9.38218767 0.67542976 9.71395102 -1 10 C-2 9 -2 9 -2.1875 5.5625 C-2 2 -2 2 0 0 Z " fill="#868686" transform="translate(152,430)"/>
<path d="M0 0 C1.47906892 -0.02689216 2.95827483 -0.04634621 4.4375 -0.0625 C5.26121094 -0.07410156 6.08492188 -0.08570313 6.93359375 -0.09765625 C9 0 9 0 10 1 C10.04080783 2.99958364 10.04254356 5.00045254 10 7 C9.34 7 8.68 7 8 7 C8 5.35 8 3.7 8 2 C7.34 2 6.68 2 6 2 C6 3.65 6 5.3 6 7 C5.34 7 4.68 7 4 7 C4 5.35 4 3.7 4 2 C3.34 2 2.68 2 2 2 C2 3.65 2 5.3 2 7 C1.34 7 0.68 7 0 7 C0 4.69 0 2.38 0 0 Z " fill="#7A7A7A" transform="translate(59,433)"/>
<path d="M0 0 C3.69230769 0.69230769 3.69230769 0.69230769 5 2 C4.71269945 4.33944736 4.38063221 6.6739143 4 9 C2.35 9.33 0.7 9.66 -1 10 C-1 8.68 -1 7.36 -1 6 C-1.020625 5.113125 -1.04125 4.22625 -1.0625 3.3125 C-1 1 -1 1 0 0 Z " fill="#878787" transform="translate(133,430)"/>
<path d="M0 0 C1.32 0 2.64 0 4 0 C4 1.32 4 2.64 4 4 C4.66 3.67 5.32 3.34 6 3 C6.33 2.01 6.66 1.02 7 0 C8.0625 1.8125 8.0625 1.8125 9 4 C8.67 4.99 8.34 5.98 8 7 C1.84765625 7.09765625 1.84765625 7.09765625 0 7 C-1 6 -1 6 -1.125 3.5 C-1 1 -1 1 0 0 Z " fill="#BEBEBE" transform="translate(120,193)"/>
<path d="M0 0 C1.33333333 0.33333333 2.66666667 0.66666667 4 1 C4.33 0.67 4.66 0.34 5 0 C6.32 0 7.64 0 9 0 C8.67 0.99 8.34 1.98 8 3 C8 2.34 8 1.68 8 1 C7.34 1 6.68 1 6 1 C6 2.65 6 4.3 6 6 C6.66 6.33 7.32 6.66 8 7 C5.36 7 2.72 7 0 7 C-0.38133299 5.0085944 -0.71325582 3.00720923 -1 1 C-0.67 0.67 -0.34 0.34 0 0 Z " fill="#BEBEBE" transform="translate(53,142)"/>
<path d="M0 0 C6.15234375 -0.09765625 6.15234375 -0.09765625 8 0 C9 1 9 1 9.09765625 2.84765625 C9.04882812 5.92382812 9.04882812 5.92382812 9 9 C8.01 9.33 7.02 9.66 6 10 C6.33 7.03 6.66 4.06 7 1 C5.35 1 3.7 1 2 1 C2 1.99 2 2.98 2 4 C2.99 4.33 3.98 4.66 5 5 C4.01 5 3.02 5 2 5 C2 6.32 2 7.64 2 9 C1.34 9 0.68 9 0 9 C0 6.03 0 3.06 0 0 Z " fill="#929292" transform="translate(117,370)"/>
<path d="M0 0 C0 1.65 0 3.3 0 5 C-2.3125 5.625 -2.3125 5.625 -5 6 C-5.99 5.34 -6.98 4.68 -8 4 C-7.625 2.0625 -7.625 2.0625 -7 0 C-4.3333581 -1.33332095 -2.83319697 -0.67102033 0 0 Z " fill="#AEAEAE" transform="translate(24,434)"/>
<path d="M0 0 C2.97 0 5.94 0 9 0 C9.33 2.64 9.66 5.28 10 8 C9.01 8.66 8.02 9.32 7 10 C7 7.36 7 4.72 7 2 C5.35 1.67 3.7 1.34 2 1 C1.7497843 3.91634129 1.7497843 3.91634129 2 7 C2.99 7.66 3.98 8.32 5 9 C0.125 8.125 0.125 8.125 -1 7 C-0.71269945 4.66055264 -0.38063221 2.3260857 0 0 Z " fill="#8F8F8F" transform="translate(62,370)"/>
<path d="M0 0 C1.98 0 3.96 0 6 0 C6 1.32 6 2.64 6 4 C4.68 4 3.36 4 2 4 C2 5.98 2 7.96 2 10 C1.34 10 0.68 10 0 10 C-1.36952673 7.26094655 -1.12621361 5.02912668 -1 2 C-0.67 1.34 -0.34 0.68 0 0 Z " fill="#C5C5C5" transform="translate(50,370)"/>
<path d="M0 0 C2.31 0 4.62 0 7 0 C6.60404157 1.48484412 6.18249294 2.9628831 5.75 4.4375 C5.51796875 5.26121094 5.2859375 6.08492188 5.046875 6.93359375 C4 9 4 9 1.890625 9.78515625 C1.26671875 9.85605469 0.6428125 9.92695313 0 10 C0 9.34 0 8.68 0 8 C0.66 8 1.32 8 2 8 C1.34 5.36 0.68 2.72 0 0 Z " fill="#898989" transform="translate(33,433)"/>
<path d="M0 0 C0.99 0 1.98 0 3 0 C3 1.32 3 2.64 3 4 C3.66 4 4.32 4 5 4 C5.33 2.68 5.66 1.36 6 0 C6.66 0 7.32 0 8 0 C8.33 1.98 8.66 3.96 9 6 C6.36 6.33 3.72 6.66 1 7 C1 5.35 1 3.7 1 2 C0.34 1.67 -0.32 1.34 -1 1 C-0.67 0.67 -0.34 0.34 0 0 Z " fill="#B7B7B7" transform="translate(115,319)"/>
<path d="M0 0 C0.99 0.33 1.98 0.66 3 1 C2.34 1 1.68 1 1 1 C1 1.66 1 2.32 1 3 C2.98 3.495 2.98 3.495 5 4 C5 2.68 5 1.36 5 0 C5.99 0.33 6.98 0.66 8 1 C7.34 1 6.68 1 6 1 C6 1.66 6 2.32 6 3 C6.99 3.33 7.98 3.66 9 4 C8.67 4.99 8.34 5.98 8 7 C5.36 7 2.72 7 0 7 C0.66 6.67 1.32 6.34 2 6 C2 5.34 2 4.68 2 4 C1.34 4 0.68 4 0 4 C0 2.68 0 1.36 0 0 Z " fill="#AFAFAF" transform="translate(120,117)"/>
<path d="M0 0 C1.98 0 3.96 0 6 0 C6 1.32 6 2.64 6 4 C5.01 4 4.02 4 3 4 C3 3.34 3 2.68 3 2 C2.34 2 1.68 2 1 2 C1.33 4.64 1.66 7.28 2 10 C1.34 10 0.68 10 0 10 C-1.125 3.375 -1.125 3.375 0 0 Z " fill="#8E8E8E" transform="translate(106,370)"/>
<path d="M0 0 C0.66 0.66 1.32 1.32 2 2 C2.33 1.34 2.66 0.68 3 0 C3.99 0.33 4.98 0.66 6 1 C5.34 1 4.68 1 4 1 C4 2.65 4 4.3 4 6 C4.66 6.33 5.32 6.66 6 7 C3.03 6.67 0.06 6.34 -3 6 C-1.125 1.125 -1.125 1.125 0 0 Z " fill="#B7B7B7" transform="translate(122,142)"/>
<path d="M0 0 C0 1.98 0 3.96 0 6 C-2.97 5.505 -2.97 5.505 -6 5 C-6 3.35 -6 1.7 -6 0 C-3.50907189 -1.24546405 -2.58919267 -0.7767578 0 0 Z " fill="#848484" transform="translate(57,434)"/>
<path d="M0 0 C0 1.65 0 3.3 0 5 C-1.875 5.625 -1.875 5.625 -4 6 C-4.66 5.34 -5.32 4.68 -6 4 C-6 2.68 -6 1.36 -6 0 C-3.50907189 -1.24546405 -2.58919267 -0.7767578 0 0 Z " fill="#CCCCCC" transform="translate(129,17)"/>
<path d="M0 0 C2.64 0.33 5.28 0.66 8 1 C8 1.66 8 2.32 8 3 C5.69 3 3.38 3 1 3 C1.309375 4.0725 1.61875 5.145 1.9375 6.25 C2.66812096 8.82866222 3.37482904 11.39512102 4 14 C2 12.625 2 12.625 0 10 C-0.35791096 6.6419531 -0.23115823 3.36463643 0 0 Z " fill="#BFBFBF" transform="translate(103,320)"/>
<path d="M0 0 C2.475 0.495 2.475 0.495 5 1 C5 2.65 5 4.3 5 6 C3.35 6.33 1.7 6.66 0 7 C0 4.69 0 2.38 0 0 Z " fill="#CCCCCC" transform="translate(58,319)"/>
<path d="M0 0 C2.475 0.495 2.475 0.495 5 1 C5 2.65 5 4.3 5 6 C3.35 6.33 1.7 6.66 0 7 C0 4.69 0 2.38 0 0 Z " fill="#CBCBCB" transform="translate(58,16)"/>
<path d="M0 0 C2.64 0 5.28 0 8 0 C8 0.66 8 1.32 8 2 C7.01 2 6.02 2 5 2 C5 4.64 5 7.28 5 10 C4.34 10 3.68 10 3 10 C3 7.36 3 4.72 3 2 C2.01 2 1.02 2 0 2 C0 1.34 0 0.68 0 0 Z " fill="#797979" transform="translate(43,430)"/>
<path d="M0 0 C1.32 0 2.64 0 4 0 C4 2.31 4 4.62 4 7 C2.35 6.67 0.7 6.34 -1 6 C-0.67 4.02 -0.34 2.04 0 0 Z " fill="#CBCBCB" transform="translate(58,269)"/>
<path d="M0 0 C0.66 0 1.32 0 2 0 C2 1.65 2 3.3 2 5 C2.66 5 3.32 5 4 5 C4 3.35 4 1.7 4 0 C4.66 0 5.32 0 6 0 C6 2.31 6 4.62 6 7 C4.33388095 7.042721 2.66617115 7.04063832 1 7 C0 6 0 6 -0.0625 2.9375 C-0.041875 1.968125 -0.02125 0.99875 0 0 Z " fill="#7B7B7B" transform="translate(103,433)"/>
<path d="M0 0 C1.32 0 2.64 0 4 0 C5.125 4.75 5.125 4.75 4 7 C2.68 7 1.36 7 0 7 C0 4.69 0 2.38 0 0 Z " fill="#CBCBCB" transform="translate(58,218)"/>
<path d="M0 0 C1.65 0.33 3.3 0.66 5 1 C5 2.98 5 4.96 5 7 C3.35 7 1.7 7 0 7 C-0.93423645 3.98968256 -1.04449911 3.13349732 0 0 Z " fill="#787878" transform="translate(117,433)"/>
<path d="M0 0 C1.32 0 2.64 0 4 0 C4 2.31 4 4.62 4 7 C2.68 7 1.36 7 0 7 C0 4.69 0 2.38 0 0 Z " fill="#C8C8C8" transform="translate(58,294)"/>
<path d="M0 0 C1.32 0 2.64 0 4 0 C4 2.31 4 4.62 4 7 C2.68 7 1.36 7 0 7 C0 4.69 0 2.38 0 0 Z " fill="#C7C7C7" transform="translate(58,193)"/>
<path d="M0 0 C2.33944736 0.28730055 4.6739143 0.61936779 7 1 C5.95125002 3.62187494 5.35068687 4.79371361 2.875 6.25 C2.25625 6.4975 1.6375 6.745 1 7 C1 5.35 1 3.7 1 2 C0.34 1.67 -0.32 1.34 -1 1 C-0.67 0.67 -0.34 0.34 0 0 Z " fill="#E0E0E0" transform="translate(115,167)"/>
<path d="M0 0 C0.99 0 1.98 0 3 0 C3 2.31 3 4.62 3 7 C1.68 7 0.36 7 -1 7 C-1.04254356 5.00045254 -1.04080783 2.99958364 -1 1 C-0.67 0.67 -0.34 0.34 0 0 Z " fill="#BFBFBF" transform="translate(115,218)"/>
<path d="M0 0 C1.32 0 2.64 0 4 0 C4.93423645 3.01031744 5.04449911 3.86650268 4 7 C2.35 6.67 0.7 6.34 -1 6 C-0.67 4.68 -0.34 3.36 0 2 C0.66 2 1.32 2 2 2 C1.34 1.34 0.68 0.68 0 0 Z " fill="#737373" transform="translate(80,433)"/>
<path d="M0 0 C1.98 0.495 1.98 0.495 4 1 C4 2.65 4 4.3 4 6 C2.68 6.33 1.36 6.66 0 7 C-0.93423645 3.98968256 -1.04449911 3.13349732 0 0 Z " fill="#BCBCBC" transform="translate(120,218)"/>
<path d="M0 0 C0.66 0 1.32 0 2 0 C3 6.75 3 6.75 3 9 C2.01 9 1.02 9 0 9 C-1.125 2.25 -1.125 2.25 0 0 Z " fill="#7B7B7B" transform="translate(99,431)"/>
<path d="M0 0 C3.42106076 0.25341191 4.30782184 1.30782184 6.8125 3.8125 C9 7 9 7 8.63671875 9.19921875 C8.42660156 9.79347656 8.21648437 10.38773438 8 11 C7.38511719 10.06027344 7.38511719 10.06027344 6.7578125 9.1015625 C6.21898438 8.28429688 5.68015625 7.46703125 5.125 6.625 C4.32449219 5.40683594 4.32449219 5.40683594 3.5078125 4.1640625 C2.04134945 1.92405904 2.04134945 1.92405904 0 0 Z " fill="#B4B4B4" transform="translate(94,5)"/>
<path d="M0 0 C2.475 0.495 2.475 0.495 5 1 C5 2.65 5 4.3 5 6 C3.35 6.33 1.7 6.66 0 7 C0.99 5.35 1.98 3.7 3 2 C2.01 2 1.02 2 0 2 C0 1.34 0 0.68 0 0 Z " fill="#787878" transform="translate(19,433)"/>
<path d="M0 0 C0.93423645 3.01031744 1.04449911 3.86650268 0 7 C-0.99 7 -1.98 7 -3 7 C-3 5.02 -3 3.04 -3 1 C-2.01 0.67 -1.02 0.34 0 0 Z " fill="#A3A3A3" transform="translate(15,431)"/>
<path d="M0 0 C0.66 0 1.32 0 2 0 C2 1.32 2 2.64 2 4 C2.99 4 3.98 4 5 4 C5.33 3.34 5.66 2.68 6 2 C5.67 3.32 5.34 4.64 5 6 C3.35 6 1.7 6 0 6 C0 4.02 0 2.04 0 0 Z " fill="#6C6C6C" transform="translate(10,434)"/>
<path d="M0 0 C0.66 0 1.32 0 2 0 C2 3.3 2 6.6 2 10 C1.34 10 0.68 10 0 10 C-1.36952673 7.26094655 -1.12621361 5.02912668 -1 2 C-0.67 1.34 -0.34 0.68 0 0 Z " fill="#999999" transform="translate(50,370)"/>
<path d="M0 0 C0.66 0 1.32 0 2 0 C2.33 1.98 2.66 3.96 3 6 C1.35 6 -0.3 6 -2 6 C-1.49396008 3.83125748 -1.00016187 2.00032373 0 0 Z " fill="#BCBCBC" transform="translate(54,193)"/>
<path d="M0 0 C1.32 0 2.64 0 4 0 C3.814375 0.78375 3.62875 1.5675 3.4375 2.375 C2.74037734 4.97089775 2.74037734 4.97089775 4 7 C2.68 7 1.36 7 0 7 C0.2784375 6.1028125 0.2784375 6.1028125 0.5625 5.1875 C1.22093687 2.83591238 1.22093687 2.83591238 0 0 Z " fill="#BFBFBF" transform="translate(114,41)"/>
<path d="M0 0 C2.62386487 3.06117568 3 3.73173127 3 8 C2.01 8.33 1.02 8.66 0 9 C0 6.03 0 3.06 0 0 Z " fill="#EEEEEE" transform="translate(32,433)"/>
<path d="M0 0 C1.32 0 2.64 0 4 0 C4 1.65 4 3.3 4 5 C3.01 5.495 3.01 5.495 2 6 C1.34 5.67 0.68 5.34 0 5 C0 3.35 0 1.7 0 0 Z " fill="#E1E1E1" transform="translate(59,143)"/>
<path d="M0 0 C1.32 0 2.64 0 4 0 C4 0.66 4 1.32 4 2 C3.34 2 2.68 2 2 2 C2 3.65 2 5.3 2 7 C1.34 7 0.68 7 0 7 C0 4.69 0 2.38 0 0 Z " fill="#7A7A7A" transform="translate(111,433)"/>
<path d="M0 0 C0.99 0 1.98 0 3 0 C3 2.31 3 4.62 3 7 C2.34 7 1.68 7 1 7 C1 6.34 1 5.68 1 5 C0.01 4.67 -0.98 4.34 -2 4 C-1.01 4 -0.02 4 1 4 C0.67 2.68 0.34 1.36 0 0 Z " fill="#D4D4D4" transform="translate(56,433)"/>
<path d="M0 0 C1.32 0.33 2.64 0.66 4 1 C4 2.98 4 4.96 4 7 C2.68 6.34 1.36 5.68 0 5 C0 3.35 0 1.7 0 0 Z " fill="#B7B7B7" transform="translate(139,431)"/>
<path d="M0 0 C1.32 0 2.64 0 4 0 C4 0.66 4 1.32 4 2 C3.34 2 2.68 2 2 2 C2 3.65 2 5.3 2 7 C1.34 7 0.68 7 0 7 C0 4.69 0 2.38 0 0 Z " fill="#7A7A7A" transform="translate(86,433)"/>
<path d="M0 0 C0.99 0 1.98 0 3 0 C3.33 1.98 3.66 3.96 4 6 C3.01 6.33 2.02 6.66 1 7 C1 5.35 1 3.7 1 2 C0.34 1.67 -0.32 1.34 -1 1 C-0.67 0.67 -0.34 0.34 0 0 Z " fill="#D3D3D3" transform="translate(115,319)"/>
<path d="M0 0 C1.32 0.66 2.64 1.32 4 2 C3.01 2.33 2.02 2.66 1 3 C0.67 3.99 0.34 4.98 0 6 C-0.66 6 -1.32 6 -2 6 C-2 4.68 -2 3.36 -2 2 C-1.34 2 -0.68 2 0 2 C0 1.34 0 0.68 0 0 Z " fill="#EBEBEB" transform="translate(90,433)"/>
<path d="M0 0 C1.67542976 0.28604898 3.34385343 0.61781233 5 1 C4.67 1.99 4.34 2.98 4 4 C3.01 4 2.02 4 1 4 C1 3.34 1 2.68 1 2 C0.34 1.67 -0.32 1.34 -1 1 C-0.67 0.67 -0.34 0.34 0 0 Z " fill="#B1B1B1" transform="translate(108,370)"/>
<path d="M0 0 C0.99 0 1.98 0 3 0 C3 1.65 3 3.3 3 5 C1.68 5 0.36 5 -1 5 C-0.67 3.35 -0.34 1.7 0 0 Z " fill="#DADADA" transform="translate(119,244)"/>
</svg>
